<svg width="24" height="24" viewBox="0 0 24 24" fill="none" xmlns="http://www.w3.org/2000/svg">
<path d="M4.17715 13.8372C3.81489 13.2598 3.62354 12.5992 3.62354 11.926C3.62354 11.2528 3.81489 10.5922 4.17715 10.0149C4.28855 9.83713 4.43761 9.68365 4.61476 9.56427C4.7919 9.4449 4.99322 9.36227 5.20576 9.3217L6.95946 8.98601C7.06405 8.96621 7.15838 8.91274 7.22672 8.83451L9.36887 6.37576C10.5933 4.96963 11.2065 4.26756 11.7524 4.45669C12.3003 4.64583 12.3003 5.5608 12.3003 7.39075V16.4632C12.3003 18.2922 12.3003 19.2062 11.7534 19.3963C11.2075 19.5845 10.5943 18.8824 9.3699 17.4772L7.22464 15.0175C7.15657 14.9395 7.06264 14.886 6.95843 14.866L5.20472 14.5303C4.99218 14.4897 4.79087 14.4071 4.61372 14.2877C4.43658 14.1684 4.28855 14.0149 4.17715 13.8372Z" fill="#404040"/>
<path d="M14.9272 8.42453C15.8937 9.34841 16.439 10.6 16.4443 11.9066C16.4495 13.2132 15.9143 14.4688 14.9552 15.3997M19.196 6.32425C20.7424 7.80233 21.6149 9.8048 21.6234 11.8952C21.632 13.9857 20.7758 15.9946 19.2416 17.4842" stroke="#404040" stroke-width="2" stroke-linecap="round"/>
</svg>
